<svg xmlns="http://www.w3.org/2000/svg" viewBox="0 0 1200 1200" role="img" aria-labelledby="t d"><title id="t">Logo editorial da Família Virtual da Jus 9</title><desc id="d">Unicórnio alado branco e dourado, estrela de nove pontas, balança da Justiça, circuitos e escudo JUS 9 sobre fundo azul-noturno.</desc><defs><radialGradient id="bg"><stop offset="0" stop-color="#18314a"/><stop offset=".55" stop-color="#071524"/><stop offset="1" stop-color="#020812"/></radialGradient><linearGradient id="gold" x1="0" x2="1"><stop stop-color="#9c6515"/><stop offset=".35" stop-color="#ffe6a1"/><stop offset=".62" stop-color="#d99c2c"/><stop offset="1" stop-color="#8b520d"/></linearGradient><filter id="glow"><feGaussianBlur stdDeviation="7" result="b"/><feMerge><feMergeNode in="b"/><feMergeNode in="SourceGraphic"/></feMerge></filter></defs><rect width="1200" height="1200" fill="url(#bg)"/><g fill="none" stroke="#b67d22" stroke-width="3" opacity=".72"><circle cx="600" cy="510" r="460"/><circle cx="600" cy="510" r="425"/><circle cx="600" cy="510" r="390"/></g><g stroke="#b67d22" stroke-width="3" opacity=".55"><path d="M320 250h80v60h75v55h65M880 250h-80v60h-75v55h-65M280 480h110v55h95M920 480H810v55h-95" fill="none"/><g fill="#e4ae43"><circle cx="320" cy="250" r="7"/><circle cx="475" cy="365" r="7"/><circle cx="880" cy="250" r="7"/><circle cx="725" cy="365" r="7"/><circle cx="280" cy="480" r="7"/><circle cx="485" cy="535" r="7"/><circle cx="920" cy="480" r="7"/><circle cx="715" cy="535" r="7"/></g></g><g transform="translate(600 195)" filter="url(#glow)"><path d="M0-100 L18-35 L65-76 L44-15 L102-34 L50 5 L102 34 L44 15 L65 76 L18 35 L0 100 L-18 35 L-65 76 L-44 15 L-102 34 L-50 5 L-102-34 L-44-15 L-65-76 L-18-35 Z" fill="url(#gold)" stroke="#ffe9aa" stroke-width="3"/></g><g fill="none" stroke="url(#gold)" stroke-width="7"><path d="M170 505h180M850 505h180"/><path d="M260 505v125m680-125v125"/><path d="M205 630h110l-55 45zM885 630h110l-55 45z" fill="#c98c22"/></g><g transform="translate(605 610)"><path d="M-40 250 C-190 210-250 90-220-40 C-190-165-90-245 20-225 C130-205 190-125 180-30 C170 70 95 115 70 175 C50 225 35 285 35 285 L-55 285Z" fill="#fff5d9" stroke="#e7bd64" stroke-width="7"/><path d="M-145-70 C-300-175-420-135-455-70 C-370-65-280-20-205 55 C-300 20-380 30-430 75 C-330 90-250 135-180 195" fill="#f6d680" stroke="#e5b64e" stroke-width="12"/><path d="M80-150 L190-325 L135-130" fill="url(#gold)" stroke="#ffe6a1" stroke-width="5"/><path d="M85-115 C130-115 160-90 165-55 C170-15 140 15 100 15 C65 15 35-10 35-48 C35-87 55-108 85-115Z" fill="#fff8e6" stroke="#d9ad59" stroke-width="5"/><circle cx="118" cy="-60" r="8" fill="#06101d"/><path d="M-40 285 C-5 320 75 320 105 285" fill="none" stroke="#d39a33" stroke-width="8"/></g><g transform="translate(600 970)"><path d="M-210-65 Q0-150 210-65 L175 105 Q0 155-175 105Z" fill="#020812" stroke="url(#gold)" stroke-width="10"/><text x="0" y="55" text-anchor="middle" font-family="Georgia,serif" font-size="116" fill="url(#gold)">JUS 9</text></g><circle cx="600" cy="80" r="8" fill="#ffe6a1"/><circle cx="600" cy="1110" r="8" fill="#ffe6a1"/></svg>